<svg xmlns="http://www.w3.org/2000/svg" viewBox="0 0 512 512" width="512" height="512">
  <!-- Green background with rounded corners (border-radius ~10% of 512 = ~51px) -->
  <rect width="512" height="512" rx="51" ry="51" fill="#16a34a"/>

  <!-- Nested SVG with original viewBox handles coordinate system automatically -->
  <!-- x=102 y=102 gives 60% size centered: (512 - 307) / 2 = 102 -->
  <svg x="102" y="102" width="308" height="308" viewBox="0 -960 960 960">
    <path
      fill="#0f172a"
      d="m300-300 280-80 80-280-280 80-80 280Zm180-120q-25 0-42.5-17.5T420-480q0-25 17.5-42.5T480-540q25 0 42.5 17.5T540-480q0 25-17.5 42.5T480-420Zm0 340q-83 0-156-31.5T197-197q-54-54-85.5-127T80-480q0-83 31.5-156T197-763q54-54 127-85.5T480-880q83 0 156 31.5T763-763q54 54 85.5 127T880-480q0 83-31.5 156T763-197q-54 54-127 85.5T480-80Zm0-80q133 0 226.5-93.5T800-480q0-133-93.5-226.5T480-800q-133 0-226.5 93.5T160-480q0 133 93.5 226.5T480-160Zm0-320Z"
    />
  </svg>
</svg>
